<svg id="visual" viewBox="0 0 540 960" width="540" height="960" xmlns="http://www.w3.org/2000/svg" xmlns:xlink="http://www.w3.org/1999/xlink" version="1.1"><path d="M0 270L22.5 278C45 286 90 302 135 308.3C180 314.7 225 311.3 270 300.2C315 289 360 270 405 265.2C450 260.3 495 269.7 517.5 274.3L540 279L540 0L517.5 0C495 0 450 0 405 0C360 0 315 0 270 0C225 0 180 0 135 0C90 0 45 0 22.5 0L0 0Z" fill="#f7aeaa"></path><path d="M0 366L22.5 370.8C45 375.7 90 385.3 135 385.3C180 385.3 225 375.7 270 364.3C315 353 360 340 405 341.5C450 343 495 359 517.5 367L540 375L540 277L517.5 272.3C495 267.7 450 258.3 405 263.2C360 268 315 287 270 298.2C225 309.3 180 312.7 135 306.3C90 300 45 284 22.5 276L0 268Z" fill="#f4a09a"></path><path d="M0 471L22.5 479C45 487 90 503 135 498.3C180 493.7 225 468.3 270 446C315 423.7 360 404.3 405 412.3C450 420.3 495 455.7 517.5 473.3L540 491L540 373L517.5 365C495 357 450 341 405 339.5C360 338 315 351 270 362.3C225 373.7 180 383.3 135 383.3C90 383.3 45 373.7 22.5 368.8L0 364Z" fill="#f09189"></path><path d="M0 606L22.5 612.3C45 618.7 90 631.3 135 644.2C180 657 225 670 270 652.5C315 635 360 587 405 587C450 587 495 635 517.5 659L540 683L540 489L517.5 471.3C495 453.7 450 418.3 405 410.3C360 402.3 315 421.7 270 444C225 466.3 180 491.7 135 496.3C90 501 45 485 22.5 477L0 469Z" fill="#e9837a"></path><path d="M0 769L22.5 769C45 769 90 769 135 772.2C180 775.3 225 781.7 270 759.3C315 737 360 686 405 679.7C450 673.3 495 711.7 517.5 730.8L540 750L540 681L517.5 657C495 633 450 585 405 585C360 585 315 633 270 650.5C225 668 180 655 135 642.2C90 629.3 45 616.7 22.5 610.3L0 604Z" fill="#e0766b"></path><path d="M0 961L22.5 961C45 961 90 961 135 961C180 961 225 961 270 961C315 961 360 961 405 961C450 961 495 961 517.5 961L540 961L540 748L517.5 728.8C495 709.7 450 671.3 405 677.7C360 684 315 735 270 757.3C225 779.7 180 773.3 135 770.2C90 767 45 767 22.5 767L0 767Z" fill="#d6685d"></path></svg>